<svg id="Layer_1" height="512" viewBox="0 0 512 512" width="512" xmlns="http://www.w3.org/2000/svg" data-name="Layer 1"><path d="m407.54 465.25v.41h-303.52v-26a161.387 161.387 0 0 1 75.1-136.49l49.61-31.32a19 19 0 0 0 0-32.11l-49.61-31.32a161.387 161.387 0 0 1 -75.1-136.49v-25.59h303.52v25.59a161.4 161.4 0 0 1 -75.11 136.49l-49.61 31.32a19 19 0 0 0 0 32.11l49.61 31.32a161.4 161.4 0 0 1 75.11 136.49z" fill="#88ced8"/><path d="m134.02 439.66a161.387 161.387 0 0 1 75.1-136.49l49.61-31.32a19 19 0 0 0 0-32.11l-49.61-31.32a161.387 161.387 0 0 1 -75.1-136.49v-25.59h-30v25.59a161.387 161.387 0 0 0 75.1 136.49l49.61 31.32a19 19 0 0 1 0 32.11l-49.61 31.32a161.387 161.387 0 0 0 -75.1 136.49v26h30z" fill="#76b3b7"/><path d="m384.19 443.15h-256.88c2.71-60.85 36.14-118.68 100.61-143.47a75.877 75.877 0 0 1 13.68-3.8 80.729 80.729 0 0 1 14.15-1.24 77.489 77.489 0 0 1 27.82 5.04c64.48 24.79 97.91 82.62 100.62 143.47z" fill="#baa379"/><path d="m165.16 164.46h174.83c-11.3 16.67-56.31 44.24-57.57 44.97-8.42 4.89-15.84 10.32-18.35 19.73l-6.07 22.78a2.351 2.351 0 0 1 -4.5.14l-8.36-24.93a29.719 29.719 0 0 0 -17.29-18.21c-.91-.36-48.55-24.63-62.69-44.48z" fill="#baa379"/><path d="m84.5 45.343h12v423.314h-12z" fill="#b0b5ca"/><path d="m415.5 45.343h12v423.314h-12z" fill="#b0b5ca"/><path d="m130.579 78.572a6 6 0 0 1 -5.948-5.266c-.327-2.659-.595-5.359-.8-8.026a6 6 0 0 1 11.967-.9c.186 2.477.435 4.986.74 7.455a6.007 6.007 0 0 1 -5.963 6.735z" fill="#f4f8fc"/><path d="m157.64 150.1a5.991 5.991 0 0 1 -4.956-2.612 167.139 167.139 0 0 1 -24-52.852 6 6 0 1 1 11.62-3 155.174 155.174 0 0 0 22.281 49.064 6 6 0 0 1 -4.945 9.391z" fill="#f4f8fc"/><path d="m79.78 486.4a29.205 29.205 0 0 0 20.75 8.6h310.94a29.339 29.339 0 0 0 29.34-29.34h-369.62a29.215 29.215 0 0 0 8.59 20.74z" fill="#978cac"/><path d="m101.19 465.66h-30a29.345 29.345 0 0 0 29.34 29.34h30a29.345 29.345 0 0 1 -29.34-29.34z" fill="#787189"/><path d="m432.22 25.6a29.205 29.205 0 0 0 -20.75-8.6h-310.94a29.339 29.339 0 0 0 -29.34 29.34h369.62a29.215 29.215 0 0 0 -8.59-20.74z" fill="#978cac"/><path d="m130.53 17h-30a29.339 29.339 0 0 0 -29.34 29.34h30a29.339 29.339 0 0 1 29.34-29.34z" fill="#787189"/></svg>